<svg width="22" height="22" viewBox="0 0 22 22" fill="none" xmlns="http://www.w3.org/2000/svg">
<path d="M11 9.39645L2.42678 0.823223L2.25 0.646447L2.07322 0.823223L0.823223 2.07322L0.646447 2.25L0.823223 2.42678L9.39645 11L0.823223 19.5732L0.646447 19.75L0.823223 19.9268L2.07322 21.1768L2.25 21.3536L2.42678 21.1768L11 12.6036L19.5732 21.1768L19.75 21.3536L19.9268 21.1768L21.1768 19.9268L21.3536 19.75L21.1768 19.5732L12.6036 11L21.1768 2.42678L21.3536 2.25L21.1768 2.07322L19.9268 0.823223L19.75 0.646447L19.5732 0.823223L11 9.39645Z" fill="white" stroke="white" stroke-width="0.5"/>
</svg>
