<svg width="33" height="33" viewBox="0 0 33 33" fill="none" xmlns="http://www.w3.org/2000/svg">
<rect x="0.5" y="0.5" width="32" height="32" stroke="white"/>
<path d="M21.0625 9H12.9375C11.3125 9 10 10.3125 10 11.9375V20.0625C10 21.6875 11.3125 23 12.9375 23H21.0625C22.6875 23 24 21.6875 24 20.0625V11.9375C24 10.3125 22.6875 9 21.0625 9ZM17 19.25C15.125 19.25 13.625 17.75 13.625 15.875C13.625 14 15.125 12.5 17 12.5C18.875 12.5 20.375 14 20.375 15.875C20.375 17.75 18.875 19.25 17 19.25ZM21.25 12.75C20.625 12.75 20.125 12.25 20.125 11.625C20.125 11 20.625 10.5625 21.25 10.5625C21.875 10.5625 22.375 11.0625 22.375 11.6875C22.375 12.3125 21.8125 12.75 21.25 12.75Z" fill="white"/>
</svg>
