<svg width="33" height="33" viewBox="0 0 33 33" fill="none" xmlns="http://www.w3.org/2000/svg">
<path d="M25.8951 20.0259C25.8696 19.9812 25.8477 19.9429 25.8258 19.9109C25.4793 19.3649 24.8155 18.6911 23.8381 17.8959L23.8162 17.8768L23.8053 17.8672L23.7943 17.8576H23.7834C23.3384 17.4872 23.0576 17.2381 22.9409 17.1103C22.7257 16.8677 22.6783 16.6218 22.795 16.3727C22.8789 16.1843 23.1926 15.7851 23.7323 15.1784C24.0168 14.8558 24.2429 14.5972 24.4107 14.4024C25.6106 13.0037 26.1321 12.1095 25.9717 11.7231L25.9097 11.6337C25.8696 11.5794 25.7601 11.5283 25.5887 11.4836C25.4137 11.4389 25.1912 11.4293 24.9213 11.4613L21.9234 11.4804C21.876 11.4645 21.8067 11.4677 21.7155 11.4836C21.6243 11.5028 21.5805 11.5124 21.5805 11.5124L21.5295 11.5347L21.4894 11.5635C21.4529 11.5826 21.4164 11.6145 21.3763 11.6593C21.3362 11.704 21.2997 11.7582 21.2742 11.8189C20.9459 12.5534 20.5776 13.2368 20.1582 13.8691C19.9029 14.2459 19.6658 14.5716 19.4506 14.8494C19.2354 15.1273 19.0567 15.3284 18.9108 15.4594C18.7649 15.5903 18.6337 15.6957 18.5133 15.7723C18.3966 15.8522 18.3054 15.8841 18.2434 15.8713C18.1814 15.8585 18.1231 15.8458 18.0647 15.8362C17.9662 15.7819 17.8896 15.7085 17.8313 15.6127C17.7729 15.5169 17.7328 15.3987 17.7109 15.2582C17.689 15.1145 17.6781 14.9931 17.6745 14.8878C17.6708 14.7856 17.6745 14.6387 17.6781 14.4503C17.6854 14.2619 17.689 14.1341 17.689 14.0671C17.689 13.8371 17.6927 13.5849 17.7036 13.3134C17.7146 13.042 17.7219 12.828 17.7292 12.6716C17.7365 12.5151 17.7401 12.3458 17.7401 12.1702C17.7401 11.9946 17.7292 11.8572 17.7036 11.7551C17.6781 11.6561 17.6416 11.5571 17.5942 11.4645C17.5468 11.3719 17.4739 11.2984 17.379 11.2441C17.2842 11.193 17.1675 11.1515 17.0289 11.1196C16.6606 11.0461 16.1937 11.0078 15.6248 11.0014C14.3337 10.9886 13.5058 11.0621 13.1374 11.2218C12.9915 11.2888 12.8602 11.3782 12.7435 11.4964C12.6195 11.6305 12.6013 11.704 12.6925 11.7167C13.1083 11.771 13.4037 11.902 13.5787 12.1095L13.6407 12.2181C13.6881 12.2979 13.7392 12.4384 13.7866 12.6364C13.834 12.8376 13.8669 13.058 13.8814 13.3007C13.9143 13.7445 13.9143 14.1245 13.8814 14.4407C13.845 14.7568 13.8121 15.0027 13.783 15.1784C13.7501 15.354 13.7064 15.4977 13.6407 15.6063C13.5787 15.7148 13.535 15.7819 13.5167 15.8074C13.4948 15.833 13.4803 15.8458 13.4657 15.8522C13.3745 15.8809 13.2833 15.8969 13.1848 15.8969C13.0864 15.8969 12.9697 15.8554 12.8311 15.7691C12.6925 15.6829 12.5466 15.5679 12.4007 15.4179C12.2512 15.2678 12.0834 15.0602 11.8938 14.792C11.7078 14.5237 11.5108 14.2076 11.3102 13.8435L11.1425 13.5785C11.0367 13.4092 10.8944 13.1601 10.7157 12.8344C10.5334 12.5087 10.3766 12.1957 10.238 11.8892C10.1833 11.7614 10.0994 11.6656 9.98631 11.5986L9.93525 11.5698C9.90243 11.5443 9.84407 11.5187 9.76748 11.4932C9.69089 11.4645 9.61066 11.4453 9.52677 11.4325L6.67472 11.4517C6.38295 11.4517 6.186 11.5092 6.08024 11.6241L6.04012 11.6784C6.01094 11.7199 6 11.7678 6 11.8349C6 11.902 6.02188 11.985 6.062 12.0808C6.47777 12.9398 6.93366 13.7637 7.42238 14.562C7.9111 15.3604 8.33781 15.9991 8.69888 16.4844C9.05994 16.9698 9.4283 17.4297 9.80396 17.8608C10.1796 18.2919 10.4276 18.5697 10.548 18.6911C10.6683 18.8124 10.7668 18.905 10.8361 18.9657L11.095 19.186C11.2628 19.3329 11.5072 19.5054 11.8281 19.7098C12.1527 19.9141 12.5101 20.1153 12.9004 20.3133C13.2943 20.5113 13.7501 20.671 14.268 20.7955C14.7896 20.92 15.2965 20.9711 15.7889 20.9456H16.9852C17.2295 20.9264 17.4119 20.8594 17.5359 20.7444L17.576 20.6997C17.6052 20.6646 17.6307 20.6071 17.6526 20.5305C17.6781 20.4538 17.689 20.3708 17.689 20.2782C17.6818 20.0163 17.7036 19.78 17.7583 19.5724C17.8094 19.3617 17.8678 19.2052 17.9371 19.0998C18.0027 18.9944 18.0793 18.905 18.1595 18.8316C18.2434 18.7581 18.3018 18.7134 18.3382 18.7006C18.3711 18.6847 18.4002 18.6751 18.4221 18.6687C18.5899 18.6208 18.7832 18.6687 19.0093 18.8092C19.2354 18.9529 19.447 19.1286 19.6439 19.3393C19.8409 19.5501 20.0779 19.7832 20.3587 20.0451C20.6359 20.3069 20.8803 20.5017 21.0882 20.6294L21.2961 20.738C21.4346 20.8115 21.617 20.8785 21.8395 20.9392C22.062 20.9999 22.2553 21.0158 22.423 20.9839L25.0891 20.9488C25.3517 20.9488 25.5596 20.9105 25.7018 20.8338C25.8477 20.7572 25.9352 20.6742 25.9607 20.5815C25.9899 20.4889 25.9899 20.3868 25.9644 20.2718C25.9425 20.1536 25.917 20.0738 25.8951 20.0259Z" fill="white"/>
<rect x="0.5" y="0.5" width="32" height="32" stroke="white"/>
</svg>
