<svg width="14" height="18" viewBox="0 0 14 18" fill="none" xmlns="http://www.w3.org/2000/svg">
<path d="M13.6908 14.3504C13.8633 13.8407 13.6009 13.2874 13.1047 13.0793C12.5681 12.8542 12.0408 12.6142 11.5134 12.3593C11.0399 12.1204 10.5664 11.8816 10.1004 11.6269C9.61516 11.3616 8.99503 11.5504 8.76789 12.0546C8.51931 12.6064 7.81207 12.768 7.37714 12.3471C5.76219 10.7841 4.44604 8.88875 3.5261 6.79303C3.29104 6.25754 3.6678 5.66778 4.25049 5.61799C4.78038 5.5727 5.15118 5.07543 5.06114 4.55129C4.85866 3.37263 4.72406 2.19133 4.64828 0.997834C4.6133 0.447014 4.15166 0.015888 3.60008 0.0354985L1.56691 0.107784L1.0022 0.120733C0.449102 0.133415 0.0088476 0.593609 0.0504044 1.14529C0.598957 8.42758 5.06882 14.8611 11.5109 17.6225C12.0284 17.8444 12.6131 17.5587 12.7899 17.0241L12.9781 16.4551L13.6908 14.3504Z" fill="white"/>
</svg>
